<svg width="60" height="60" viewBox="0 0 60 60" fill="none" xmlns="http://www.w3.org/2000/svg">
  <g clip-path="url(#clip0_10065_5585)">
    <circle cx="30" cy="30" r="30" fill="white"/>
    <path d="M48.9547 17.4361C50.2202 16.1617 49.7647 13.6375 47.9379 11.8002C46.1111 9.96036 43.6048 9.50165 42.3394 10.7761C41.0739 12.0506 41.5294 14.5748 43.3562 16.4121C45.183 18.2519 47.6892 18.7106 48.9547 17.4361Z" fill="url(#paint0_linear_10065_5585)"/>
    <path d="M10.814 42.5251C9.54853 43.7996 10.004 46.3238 11.8308 48.1611C13.6576 50.0009 16.1639 50.4596 17.4268 49.1852C18.6923 47.9107 18.2368 45.3865 16.4101 43.5492C14.5833 41.7094 12.077 41.2507 10.814 42.5251Z" fill="url(#paint1_linear_10065_5585)"/>
    <path d="M46.3454 38.3692C43.9228 38.2701 41.5372 37.2659 39.7276 35.3665C38.184 33.7474 37.3075 31.7315 37.0835 29.6636C37.0071 27.9131 36.3055 26.1848 34.9785 24.8484C33.9592 23.8218 32.7135 23.1672 31.4037 22.8846C31.091 22.8176 30.7734 22.7705 30.4558 22.7457C28.3164 22.5647 26.2188 21.6721 24.5446 20.053C22.6317 18.2057 21.6346 15.7609 21.5583 13.2888C21.5583 13.2838 21.5583 13.2814 21.5583 13.2814C21.5558 13.1499 21.5533 13.0161 21.5533 12.8846C21.5533 12.8772 21.5533 12.8698 21.5533 12.8648C21.5484 12.7879 21.541 12.7111 21.5361 12.6367C21.4425 11.6945 21.088 10.8539 20.4553 10.2191C18.5054 8.25536 14.6426 8.96202 11.8285 11.7961C9.01204 14.6327 8.31284 18.5206 10.2627 20.4844C10.9496 21.1762 11.8778 21.5382 12.9143 21.5878C12.9192 21.5878 12.9241 21.5878 12.9315 21.5878C12.9537 21.5878 12.9758 21.5878 12.9955 21.5878C13.0817 21.5878 13.1679 21.5903 13.254 21.5927C13.2663 21.5927 13.2762 21.5927 13.2885 21.5927C15.7529 21.6647 18.1878 22.6713 20.0269 24.6029C21.6272 26.2815 22.511 28.3817 22.6957 30.529C22.6982 30.5662 22.7006 30.6034 22.7031 30.6405C22.7277 30.8935 22.7622 31.1439 22.8114 31.3918C23.0798 32.7531 23.7371 34.0524 24.7859 35.1087C26.044 36.3757 27.6516 37.0749 29.2962 37.2088C31.4382 37.3898 33.5358 38.2949 35.2099 39.9115C37.1229 41.7588 38.1323 44.2135 38.2086 46.6831C38.1815 47.8782 38.5385 48.9568 39.3116 49.7354C41.259 51.6992 45.1243 50.99 47.9383 48.1559C50.7524 45.3218 51.454 41.4315 49.5066 39.4677C48.7089 38.6643 47.5863 38.3073 46.3503 38.3618L46.3454 38.3692Z" fill="url(#paint2_linear_10065_5585)"/>
    <path d="M49.2843 22.8769C48.6737 22.5124 48.073 22.4033 47.3836 22.2918C46.5712 22.1579 45.7759 21.9322 45.0127 21.6173C43.4986 20.995 42.1347 20.0379 40.98 18.875C39.9484 17.8361 39.0744 16.631 38.4491 15.302C38.1758 14.7193 37.9149 14.0969 37.7844 13.4622C37.6366 12.7456 37.612 11.9992 37.3732 11.3025C36.4451 8.59733 33.242 7.52865 30.6397 7.83363C27.1339 8.24524 24.5562 10.8562 24.8812 13.668C25.1471 15.9665 27.2545 17.5162 29.3866 17.9204C30.9942 18.2253 32.5404 18.4733 34.0569 19.1353C35.5317 19.78 36.8956 20.7049 38.0256 21.8405C40.1996 24.0225 41.4576 26.7723 41.8048 29.6188C41.8146 29.77 41.8294 29.9213 41.8516 30.0676C42.2012 32.7281 43.895 34.8233 46.1526 35.0886C48.9445 35.4159 51.537 32.8198 51.9456 29.289C52.2189 26.921 51.4237 24.1539 49.2843 22.8745V22.8769Z" fill="url(#paint3_linear_10065_5585)"/>
    <path d="M30.4156 42.076C28.8079 41.771 27.2618 41.523 25.7453 40.861C24.2705 40.2163 22.9066 39.2915 21.7765 38.1558C19.6026 35.9739 18.3446 33.2241 17.9974 30.3776C17.9876 30.2263 17.9728 30.0751 17.9506 29.9288C17.601 27.2682 15.9072 25.173 13.6496 24.9077C10.8577 24.5804 8.26523 27.1765 7.85655 30.7073C7.58327 33.0753 8.37848 35.8424 10.5179 37.1219C11.1285 37.4864 11.7292 37.5955 12.4186 37.7071C13.231 37.8409 14.0263 38.0666 14.7895 38.3815C16.3036 39.0038 17.6675 39.9609 18.8222 41.1238C19.8537 42.1628 20.7277 43.3678 21.3531 44.6968C21.6264 45.2795 21.8873 45.9019 22.0178 46.5367C22.1655 47.2532 22.1902 47.9996 22.429 48.6963C23.3571 51.404 26.5626 52.4727 29.1625 52.1652C32.6683 51.7536 35.246 49.1426 34.921 46.3309C34.6551 44.0323 32.5477 42.4826 30.4156 42.0785V42.076Z" fill="url(#paint4_linear_10065_5585)"/>
  </g>
  <defs>
    <linearGradient id="paint0_linear_10065_5585" x1="45.647" y1="10.0547" x2="45.647" y2="18.1576" gradientUnits="userSpaceOnUse">
      <stop stop-color="#9E8DFF"/>
      <stop offset="1" stop-color="#212647"/>
    </linearGradient>
    <linearGradient id="paint1_linear_10065_5585" x1="14.1204" y1="41.8037" x2="14.1204" y2="49.9066" gradientUnits="userSpaceOnUse">
      <stop stop-color="#9E8DFF"/>
      <stop offset="1" stop-color="#212647"/>
    </linearGradient>
    <linearGradient id="paint2_linear_10065_5585" x1="29.8834" y1="9.10742" x2="29.8834" y2="50.8463" gradientUnits="userSpaceOnUse">
      <stop stop-color="#9E8DFF"/>
      <stop offset="1" stop-color="#212647"/>
    </linearGradient>
    <linearGradient id="paint3_linear_10065_5585" x1="38.4255" y1="7.7832" x2="38.4255" y2="35.1165" gradientUnits="userSpaceOnUse">
      <stop stop-color="#9E8DFF"/>
      <stop offset="1" stop-color="#212647"/>
    </linearGradient>
    <linearGradient id="paint4_linear_10065_5585" x1="21.3767" y1="24.8799" x2="21.3767" y2="52.2163" gradientUnits="userSpaceOnUse">
      <stop stop-color="#9E8DFF"/>
      <stop offset="1" stop-color="#212647"/>
    </linearGradient>
    <clipPath id="clip0_10065_5585">
      <rect width="60" height="60" fill="white"/>
    </clipPath>
  </defs>
</svg>
