<svg width="457" height="84" viewBox="0 0 457 84" fill="none" xmlns="http://www.w3.org/2000/svg">
<path d="M277.877 25.9409C267.506 25.9409 265.247 35.6333 265.247 46.3199V65.6857H256.543V37.8892C256.543 30.6055 254.173 25.96 247.117 25.96C236.802 25.96 234.488 35.7098 234.488 46.339V65.7049H225.599V19.8233H234.488V29.8217C237.451 22.1748 242.673 18.3513 250.136 18.3513C257.599 18.3513 262.877 21.9454 264.617 30.1849C267.58 22.2895 273.006 18.3513 280.877 18.3513C291.062 18.3513 296.173 24.5836 296.173 37.0671V65.7049H287.284V37.9083C287.284 30.5864 284.877 25.9791 277.858 25.9791L277.877 25.9409Z" fill="white"/>
<path d="M356.728 25.9409C346.358 25.9409 344.099 35.6333 344.099 46.3199V65.6857H335.376V37.8892C335.376 30.6055 333.006 25.96 325.951 25.96C315.654 25.96 313.321 35.6907 313.321 46.339V65.7049H304.432V19.8233H313.321V29.8217C316.284 22.1748 321.506 18.3513 328.969 18.3513C336.432 18.3513 341.71 21.9836 343.451 30.1849C346.413 22.2895 351.839 18.3513 359.71 18.3513C369.895 18.3513 375.006 24.5836 375.006 37.0671V65.7049H366.117V37.9083C366.117 30.6246 363.747 25.9791 356.691 25.9791L356.728 25.9409Z" fill="white"/>
<path d="M397.395 42.6494C397.395 28.5026 405.506 18.3322 420.321 18.3322C435.136 18.3322 443.247 28.3305 443.247 42.6494C443.247 56.9683 435.228 67.1578 420.321 67.1578C405.414 67.1578 397.395 56.8535 397.395 42.6494ZM420.321 59.8167C430.876 59.8167 434.284 53.7374 434.284 42.745C434.284 31.7525 430.895 25.6732 420.321 25.6732C409.747 25.6732 406.358 31.7334 406.358 42.745C406.358 53.7566 409.747 59.8167 420.321 59.8167Z" fill="white"/>
<path d="M382.617 4.66333H391.951V12.922H382.617V4.66333ZM382.839 20.0001H391.728V65.6857H382.839V20.0001Z" fill="white"/>
<path d="M213.08 19.8042L213.043 19.8998L198.488 59.1667L196.932 63.774L195.506 59.1667L181.302 19.7851H172.154L188.951 65.6666H196.099L192.025 76.6591H178.877V84.0001H186.525C190.025 84.0001 192.747 83.5222 194.691 82.5472C196.654 81.5531 198.191 80.1193 199.321 78.2267C200.451 76.3341 201.728 73.4856 203.136 69.7004L221.728 19.7851H213.099L213.08 19.8042Z" fill="white"/>
<path d="M446.117 4.66333V6.15448H443.339V12.922H441.599V6.15448H438.821V4.66333H446.117ZM447.136 4.66333H449.617L451.839 10.4368H451.969L454.173 4.66333H456.654V12.922H454.969V7.26328H454.839L452.654 12.922H451.173L448.988 7.26328H448.858V12.922H447.173V4.66333H447.136Z" fill="white"/>
<path d="M144.039 58.4484C152.789 58.4484 159.4 56.6194 159.4 47.691C159.4 41.2404 155.237 38.4871 149.031 37.5825L134.788 35.4979C124.187 33.9836 118.868 28.359 118.868 18.6045C118.868 5.42814 130.008 0.000244141 142.921 0.000244141C151.131 0.000244141 157.299 1.84887 161.462 5.52647C165.625 9.20406 167.919 14.0616 168.362 20.1188H159.111C157.993 11.21 151.767 7.57176 142.825 7.57176C138.006 7.57176 134.421 8.5354 132.051 10.443C129.68 12.3703 128.485 14.9859 128.485 18.3292C128.485 23.5604 131.665 26.3924 136.715 27.1987L151.787 29.4603C164.584 31.3286 168.998 37.7398 168.998 46.452C168.998 59.4711 160.672 66.0002 144.02 66.0002C134.653 66.0002 127.791 63.8763 123.474 59.6284C119.157 55.3805 116.998 49.9919 116.998 43.443H126.249C126.558 53.4532 132.475 58.4484 144.02 58.4484H144.039Z" fill="white"/>
<path d="M0.00244141 51.9262V65.9997H73.7669V60.1762C73.7669 50.5275 81.5887 42.7056 91.2374 42.7056V23.2939H71.8257V51.4409L0.00244141 51.9262Z" fill="white"/>
<path d="M91.2349 14.0736V8.39233e-05H17.4704V5.82359C17.4704 15.4723 9.64861 23.2941 -9.15527e-05 23.2941V42.7058H19.4116V14.5589L91.2349 14.0736Z" fill="white"/>
<rect x="27.1763" y="23.2939" width="36.8822" height="19.4117" fill="#ED4A3F"/>
</svg>
