<svg width="200" height="147" viewBox="0 0 200 147" fill="none" xmlns="http://www.w3.org/2000/svg">









<path d="M70.8747 0V43.1107H5.23012C2.75003 43.1107 0.736348 41.1208 0.736348 38.6701V4.44055C0.728945 1.98984 2.74263 0 5.22271 0H70.8673H70.8747Z" fill="#F7A000"/>
<path d="M141.064 43.1107H70.874V0H97.4443C121.534 0 141.072 19.2985 141.072 43.1107H141.064Z" fill="#A66C00"/>
<path d="M114.487 86.2069V142.493C114.487 144.944 112.473 146.933 109.993 146.933H75.3678C72.8877 146.933 70.874 144.944 70.874 142.493V43.1108C94.9642 43.1108 114.487 62.4093 114.487 86.2069Z" fill="#F7A000"/>
<path d="M242.333 4.44055V38.6628C242.333 41.1135 240.32 43.1034 237.84 43.1034H141.064V0H237.84C240.32 0 242.333 1.98984 242.333 4.44055Z" fill="#F7A000"/>
<path d="M184.692 86.2142V142.486C184.692 144.936 182.678 146.926 180.198 146.926H145.566C143.086 146.926 141.072 144.936 141.072 142.486V43.1108C165.162 43.1108 184.7 62.4093 184.7 86.2215L184.692 86.2142Z" fill="#A66C00"/>
</svg>
