<svg width="1040" height="147" viewBox="0 0 1040 147" fill="none" xmlns="http://www.w3.org/2000/svg">
<path d="M343.4 132.322V31.4043H307.902V14H396.51V31.4043H361.013V132.33H343.4V132.322Z" fill="white"/>
<path d="M448.069 65.2253C428.063 65.0866 416.797 74.8327 416.797 92.367V132.322H399.185V48.7999H416.797V64.255C423.276 52.1439 436.374 47.8296 448.069 47.8296V65.2339V65.2253Z" fill="white"/>
<path d="M522.728 118.686C519.064 127.176 507.658 133.162 495.822 133.162C471.45 133.162 455.529 116.182 455.529 90.4265C455.529 64.6708 471.31 47.8296 495.822 47.8296C507.518 47.8296 519.064 53.8159 522.728 62.4444V48.7999H540.341V132.322H522.728V118.677V118.686ZM498.076 115.758C512.725 115.758 522.869 105.596 522.728 90.5651C522.728 75.6731 512.304 65.2339 497.935 65.2339C483.566 65.2339 473.142 75.2572 473.142 90.4265C473.142 105.596 483.286 115.758 498.076 115.758Z" fill="white"/>
<path d="M622.883 118.686C619.358 127.176 607.812 133.162 596.117 133.162C571.604 133.162 555.684 116.182 555.684 90.4266C555.684 64.6709 571.604 47.8297 596.117 47.8297C607.672 47.8297 619.218 53.816 622.883 62.4445V14H640.496V132.322H622.883V118.677V118.686ZM598.23 115.758C612.879 115.758 623.023 105.596 622.883 90.5652C622.883 75.6732 612.599 65.2341 598.23 65.2341C583.861 65.2341 573.296 75.2574 573.296 90.4266C573.296 105.596 583.44 115.758 598.23 115.758Z" fill="white"/>
<path d="M732.339 106.713C726.561 122.307 711.631 133.023 694.728 133.023C670.356 133.023 653.173 115.342 653.173 90.2878C653.173 65.2339 670.926 47.6909 694.308 47.6909C717.689 47.6909 735.442 65.9269 735.442 89.8719C735.442 92.0984 735.302 94.4634 734.881 96.5513H671.347C673.6 108.662 682.612 116.598 694.588 116.598C703.32 116.598 710.369 112.561 713.604 106.713H732.339ZM717.268 83.877C715.015 72.1817 706.003 64.1076 694.308 64.1076C682.612 64.1076 673.74 72.0431 671.347 83.877H717.268Z" fill="white"/>
<path d="M766.004 90.4266V132.33H748.392V14H790.657C815.03 14 831.512 28.3376 831.512 52.0054C831.512 75.6732 815.45 90.4266 791.928 90.4266H766.004ZM766.004 31.4043V73.0223H791.928C804.465 73.0223 813.907 64.2551 813.907 52.0054C813.907 39.7556 804.325 31.4043 790.666 31.4043H766.013H766.004Z" fill="white"/>
<path d="M878.424 47.8296C901.805 47.8296 919.839 66.3428 919.839 90.4265C919.839 114.51 901.805 133.162 878.424 133.162C855.042 133.162 836.868 114.649 836.868 90.4265C836.868 66.2042 855.042 47.8296 878.424 47.8296ZM854.472 90.4265C854.472 104.903 864.896 115.758 878.424 115.758C891.951 115.758 902.235 104.903 902.235 90.4265C902.235 75.9503 891.951 65.2339 878.424 65.2339C864.896 65.2339 854.472 76.0889 854.472 90.4265Z" fill="white"/>
<path d="M980.551 65.2253C960.545 65.0866 949.279 74.8327 949.279 92.367V132.322H931.666V48.7999H949.279V64.255C955.758 52.1439 968.856 47.8296 980.551 47.8296V65.2339V65.2253Z" fill="white"/>
<path d="M1021.68 31.1185V48.8001H1040V65.2255H1021.68V102.668C1021.68 111.296 1025.63 115.056 1034.36 115.056H1040V132.313H1032.67C1012.52 132.313 1004.07 124.1 1004.07 103.638V65.2168H991.535V48.7914H1004.07L1008.3 31.1099H1021.68L1021.68 31.1185Z" fill="white"/>
<path d="M70.8747 0V43.1107H5.23012C2.75003 43.1107 0.736348 41.1208 0.736348 38.6701V4.44055C0.728945 1.98984 2.74263 0 5.22271 0H70.8673H70.8747Z" fill="#F7A000"/>
<path d="M141.064 43.1107H70.874V0H97.4443C121.534 0 141.072 19.2985 141.072 43.1107H141.064Z" fill="#A66C00"/>
<path d="M114.487 86.2069V142.493C114.487 144.944 112.473 146.933 109.993 146.933H75.3678C72.8877 146.933 70.874 144.944 70.874 142.493V43.1108C94.9642 43.1108 114.487 62.4093 114.487 86.2069Z" fill="#F7A000"/>
<path d="M242.333 4.44055V38.6628C242.333 41.1135 240.32 43.1034 237.84 43.1034H141.064V0H237.84C240.32 0 242.333 1.98984 242.333 4.44055Z" fill="#F7A000"/>
<path d="M184.692 86.2142V142.486C184.692 144.936 182.678 146.926 180.198 146.926H145.566C143.086 146.926 141.072 144.936 141.072 142.486V43.1108C165.162 43.1108 184.7 62.4093 184.7 86.2215L184.692 86.2142Z" fill="#A66C00"/>
</svg>
